<svg width="150" height="49" viewBox="0 0 150 49" fill="none" xmlns="http://www.w3.org/2000/svg">
<mask id="mask0_1254_61120" style="mask-type:alpha" maskUnits="userSpaceOnUse" x="0" y="0" width="49" height="49">
<path d="M49 24.5C49 38.031 38.031 49 24.5 49C10.969 49 0 38.031 0 24.5C0 10.969 10.969 0 24.5 0C38.031 0 49 10.969 49 24.5Z" fill="#D9D9D9"/>
</mask>
<g mask="url(#mask0_1254_61120)">
<g clip-path="url(#clip0_1254_61120)">
<path d="M51.8996 -5.90039H-6.90039V52.8996H51.8996V-5.90039Z" fill="white"/>
<path d="M51.8996 -5.90039H-6.90039V52.8996H51.8996V-5.90039Z" fill="#0E2442"/>
<mask id="mask1_1254_61120" style="mask-type:luminance" maskUnits="userSpaceOnUse" x="27" y="3" width="13" height="41">
<path d="M27.1523 3.90039H39.1068V43.1259H27.1523V3.90039Z" fill="white"/>
</mask>
<g mask="url(#mask1_1254_61120)">
<mask id="mask2_1254_61120" style="mask-type:luminance" maskUnits="userSpaceOnUse" x="27" y="3" width="13" height="41">
<path d="M39.1068 7.88521V43.1004L27.1523 39.1161V3.90039L39.1068 7.88521Z" fill="white"/>
</mask>
<g mask="url(#mask2_1254_61120)">
<path d="M39.1068 3.90039V43.0795H27.1523V3.90039H39.1068Z" fill="white"/>
</g>
</g>
<mask id="mask3_1254_61120" style="mask-type:luminance" maskUnits="userSpaceOnUse" x="17" y="3" width="11" height="13">
<path d="M17.1582 3.89648H27.1537V15.141H17.1582V3.89648Z" fill="white"/>
</mask>
<g mask="url(#mask3_1254_61120)">
<mask id="mask4_1254_61120" style="mask-type:luminance" maskUnits="userSpaceOnUse" x="17" y="3" width="11" height="13">
<path d="M17.1582 7.22848V15.1399L27.1537 11.8085V3.89648L17.1582 7.22848Z" fill="white"/>
</mask>
<g mask="url(#mask4_1254_61120)">
<path d="M17.1582 15.141V3.89648H27.1537V15.141H17.1582Z" fill="#C0C0C0"/>
</g>
</g>
<mask id="mask5_1254_61120" style="mask-type:luminance" maskUnits="userSpaceOnUse" x="12" y="13" width="10" height="25">
<path d="M12.6475 13.5723H21.2245V37.0918H12.6475V13.5723Z" fill="white"/>
</mask>
<g mask="url(#mask5_1254_61120)">
<mask id="mask6_1254_61120" style="mask-type:luminance" maskUnits="userSpaceOnUse" x="12" y="13" width="10" height="25">
<path d="M21.2245 16.4311V37.0764L12.6475 34.2176V13.5723L21.2245 16.4311Z" fill="white"/>
</mask>
<g mask="url(#mask6_1254_61120)">
<path d="M21.2245 13.5723V37.0918H12.6475V13.5723H21.2245Z" fill="white"/>
</g>
</g>
<mask id="mask7_1254_61120" style="mask-type:luminance" maskUnits="userSpaceOnUse" x="5" y="13" width="8" height="18">
<path d="M5.8916 13.5508H12.6485V30.0209H5.8916V13.5508Z" fill="white"/>
</mask>
<g mask="url(#mask7_1254_61120)">
<mask id="mask8_1254_61120" style="mask-type:luminance" maskUnits="userSpaceOnUse" x="5" y="13" width="8" height="18">
<path d="M5.8916 15.8228V30.021L12.6485 27.7686V13.5703L5.8916 15.8228Z" fill="white"/>
</mask>
<g mask="url(#mask8_1254_61120)">
<path d="M5.8916 30.0217V13.5781H12.6485V30.0217H5.8916Z" fill="#C0C0C0"/>
</g>
</g>
</g>
</g>
<path d="M145.208 41.4984C144.297 41.4984 143.489 41.298 142.785 40.8971C142.08 40.4962 141.528 39.9375 141.127 39.2207C140.726 38.504 140.525 37.678 140.525 36.7427C140.525 35.7709 140.72 34.9145 141.108 34.1735C141.509 33.4325 142.062 32.8554 142.767 32.4424C143.471 32.0173 144.291 31.8047 145.226 31.8047C146.138 31.8047 146.933 32.0051 147.613 32.406C148.294 32.8069 148.816 33.3535 149.18 34.0459C149.557 34.7262 149.745 35.5036 149.745 36.3782C149.745 36.4997 149.745 36.6394 149.745 36.7973C149.745 36.9431 149.733 37.0949 149.709 37.2528H142.293V35.7405H147.267C147.243 35.1453 147.036 34.6715 146.648 34.3192C146.271 33.9669 145.797 33.7908 145.226 33.7908C144.813 33.7908 144.431 33.888 144.079 34.0823C143.738 34.2767 143.465 34.5743 143.259 34.9752C143.052 35.3639 142.949 35.8559 142.949 36.4511V36.9795C142.949 37.4897 143.04 37.9331 143.222 38.3097C143.416 38.6863 143.684 38.9778 144.024 39.1843C144.364 39.3908 144.753 39.4941 145.19 39.4941C145.664 39.4941 146.04 39.403 146.32 39.2207C146.611 39.0264 146.836 38.7774 146.994 38.4737H149.49C149.32 39.0446 149.035 39.5609 148.634 40.0225C148.233 40.4719 147.741 40.8303 147.158 41.0975C146.587 41.3648 145.937 41.4984 145.208 41.4984Z" fill="white"/>
<path d="M134.177 41.4984C133.254 41.4984 132.434 41.2919 131.717 40.8789C131.013 40.4659 130.454 39.901 130.041 39.1843C129.64 38.4555 129.439 37.6294 129.439 36.7062C129.439 35.7344 129.64 34.8841 130.041 34.1552C130.454 33.4264 131.013 32.8554 131.717 32.4424C132.434 32.0173 133.254 31.8047 134.177 31.8047C135.355 31.8047 136.345 32.1144 137.147 32.734C137.949 33.3535 138.459 34.2099 138.678 35.3032H136.072C135.963 34.8659 135.738 34.5257 135.398 34.2828C135.058 34.0277 134.645 33.9001 134.159 33.9001C133.734 33.9001 133.351 34.0095 133.011 34.2281C132.683 34.4468 132.422 34.7626 132.227 35.1756C132.045 35.5886 131.954 36.0806 131.954 36.6515C131.954 37.0767 132.009 37.4594 132.118 37.7995C132.227 38.1396 132.379 38.4312 132.574 38.6741C132.768 38.9049 132.999 39.0871 133.266 39.2207C133.533 39.3422 133.831 39.403 134.159 39.403C134.487 39.403 134.778 39.3483 135.033 39.239C135.288 39.1296 135.507 38.9717 135.689 38.7652C135.884 38.5587 136.011 38.3036 136.072 37.9999H138.678C138.459 39.0689 137.949 39.9192 137.147 40.5509C136.345 41.1826 135.355 41.4984 134.177 41.4984Z" fill="white"/>
<path d="M118.484 41.2798V32.0233H120.634L120.817 33.4993C121.096 32.9891 121.491 32.5821 122.001 32.2784C122.523 31.9626 123.143 31.8047 123.86 31.8047C124.613 31.8047 125.251 31.9626 125.773 32.2784C126.295 32.5821 126.696 33.0377 126.975 33.645C127.255 34.2403 127.395 34.9691 127.395 35.8316V41.2798H124.935V36.0685C124.935 35.3639 124.777 34.8233 124.461 34.4468C124.157 34.0702 123.69 33.8819 123.058 33.8819C122.657 33.8819 122.293 33.973 121.965 34.1552C121.649 34.3374 121.4 34.6047 121.218 34.957C121.035 35.3092 120.944 35.7405 120.944 36.2507V41.2798H118.484Z" fill="white"/>
<path d="M111.897 41.4984C110.986 41.4984 110.178 41.298 109.473 40.8971C108.769 40.4962 108.216 39.9375 107.815 39.2207C107.414 38.504 107.214 37.678 107.214 36.7427C107.214 35.7709 107.408 34.9145 107.797 34.1735C108.198 33.4325 108.751 32.8554 109.455 32.4424C110.16 32.0173 110.98 31.8047 111.915 31.8047C112.826 31.8047 113.622 32.0051 114.302 32.406C114.982 32.8069 115.505 33.3535 115.869 34.0459C116.246 34.7262 116.434 35.5036 116.434 36.3782C116.434 36.4997 116.434 36.6394 116.434 36.7973C116.434 36.9431 116.422 37.0949 116.397 37.2528H108.981V35.7405H113.956C113.931 35.1453 113.725 34.6715 113.336 34.3192C112.96 33.9669 112.486 33.7908 111.915 33.7908C111.502 33.7908 111.119 33.888 110.767 34.0823C110.427 34.2767 110.154 34.5743 109.947 34.9752C109.741 35.3639 109.637 35.8559 109.637 36.4511V36.9795C109.637 37.4897 109.728 37.9331 109.911 38.3097C110.105 38.6863 110.372 38.9778 110.712 39.1843C111.052 39.3908 111.441 39.4941 111.879 39.4941C112.352 39.4941 112.729 39.403 113.008 39.2207C113.3 39.0264 113.524 38.7774 113.682 38.4737H116.179C116.009 39.0446 115.723 39.5609 115.322 40.0225C114.921 40.4719 114.429 40.8303 113.846 41.0975C113.275 41.3648 112.626 41.4984 111.897 41.4984Z" fill="white"/>
<path d="M99.6287 41.4981C98.8026 41.4981 98.0616 41.2916 97.4057 40.8786C96.7497 40.4656 96.2334 39.8947 95.8569 39.1658C95.4803 38.437 95.292 37.6049 95.292 36.6695C95.292 35.7341 95.4803 34.902 95.8569 34.1732C96.2456 33.4322 96.774 32.8552 97.4421 32.4422C98.1102 32.017 98.8694 31.8044 99.7198 31.8044C100.376 31.8044 100.947 31.9259 101.433 32.1688C101.931 32.3996 102.325 32.7398 102.617 33.1892V28.1602H105.077V41.2795H102.89L102.617 40.0222C102.435 40.2773 102.21 40.5203 101.943 40.7511C101.676 40.9819 101.354 41.1641 100.977 41.2977C100.6 41.4313 100.151 41.4981 99.6287 41.4981ZM100.248 39.348C100.734 39.348 101.159 39.2387 101.524 39.02C101.888 38.7892 102.174 38.4734 102.38 38.0725C102.587 37.6595 102.69 37.1858 102.69 36.6513C102.69 36.1046 102.587 35.6309 102.38 35.23C102.174 34.8291 101.888 34.5194 101.524 34.3007C101.159 34.0699 100.734 33.9545 100.248 33.9545C99.7744 33.9545 99.3493 34.0699 98.9727 34.3007C98.6083 34.5194 98.3228 34.8291 98.1163 35.23C97.9098 35.6309 97.8065 36.0986 97.8065 36.6331C97.8065 37.1675 97.9098 37.6413 98.1163 38.0543C98.3228 38.4673 98.6083 38.7892 98.9727 39.02C99.3493 39.2387 99.7744 39.348 100.248 39.348Z" fill="white"/>
<path d="M90.6366 41.2807V32.0243H93.0965V41.2807H90.6366ZM91.8756 30.7853C91.4262 30.7853 91.0618 30.6577 90.7824 30.4026C90.503 30.1354 90.3633 29.8013 90.3633 29.4004C90.3633 28.9996 90.503 28.6716 90.7824 28.4165C91.0618 28.1492 91.4262 28.0156 91.8756 28.0156C92.3251 28.0156 92.6895 28.1492 92.9689 28.4165C93.2605 28.6716 93.4062 28.9996 93.4062 29.4004C93.4062 29.8013 93.2605 30.1354 92.9689 30.4026C92.6895 30.6577 92.3251 30.7853 91.8756 30.7853Z" fill="white"/>
<path d="M84.604 41.4984C83.7415 41.4984 83.0005 41.3648 82.381 41.0975C81.7736 40.8303 81.2998 40.4598 80.9597 39.986C80.6196 39.5123 80.4191 38.9717 80.3584 38.3643H82.8183C82.8669 38.5952 82.958 38.8077 83.0916 39.0021C83.2374 39.1843 83.4317 39.3362 83.6747 39.4576C83.9298 39.567 84.2274 39.6216 84.5675 39.6216C84.8955 39.6216 85.1627 39.5791 85.3693 39.4941C85.5879 39.3969 85.7458 39.2693 85.843 39.1114C85.9523 38.9535 86.007 38.7834 86.007 38.6012C86.007 38.334 85.9341 38.1335 85.7883 37.9999C85.6426 37.8542 85.43 37.7388 85.1506 37.6537C84.8712 37.5565 84.5311 37.4715 84.1302 37.3986C83.6686 37.3136 83.2252 37.2103 82.8001 37.0889C82.3749 36.9552 81.9983 36.7912 81.6703 36.5969C81.3423 36.3904 81.0812 36.1353 80.8868 35.8316C80.7046 35.5158 80.6135 35.127 80.6135 34.6654C80.6135 34.1309 80.7593 33.645 81.0508 33.2077C81.3545 32.7704 81.7857 32.4303 82.3445 32.1873C82.9155 31.9322 83.5896 31.8047 84.3671 31.8047C85.4847 31.8047 86.3653 32.0537 87.0092 32.5518C87.6651 33.0498 88.0478 33.7301 88.1571 34.5925H85.843C85.7823 34.3132 85.6243 34.0945 85.3693 33.9366C85.1142 33.7787 84.774 33.6997 84.3489 33.6997C83.9115 33.6997 83.5775 33.7787 83.3467 33.9366C83.1159 34.0945 83.0005 34.301 83.0005 34.5561C83.0005 34.7262 83.0673 34.8841 83.2009 35.0299C83.3467 35.1635 83.5593 35.2789 83.8387 35.3761C84.1181 35.4732 84.4703 35.5643 84.8955 35.6494C85.6365 35.7951 86.2682 35.9591 86.7905 36.1414C87.325 36.3236 87.738 36.5969 88.0296 36.9613C88.3332 37.3136 88.4851 37.8116 88.4851 38.4555C88.4851 39.0628 88.3272 39.5973 88.0113 40.0589C87.6955 40.5084 87.246 40.8607 86.663 41.1158C86.0799 41.3709 85.3935 41.4984 84.604 41.4984Z" fill="white"/>
<path d="M74.2795 41.4984C73.3685 41.4984 72.5607 41.298 71.8561 40.8971C71.1516 40.4962 70.5989 39.9375 70.198 39.2207C69.7971 38.504 69.5967 37.678 69.5967 36.7427C69.5967 35.7709 69.791 34.9145 70.1798 34.1735C70.5806 33.4325 71.1333 32.8554 71.8379 32.4424C72.5425 32.0173 73.3624 31.8047 74.2978 31.8047C75.2088 31.8047 76.0045 32.0051 76.6848 32.406C77.365 32.8069 77.8874 33.3535 78.2518 34.0459C78.6284 34.7262 78.8166 35.5036 78.8166 36.3782C78.8166 36.4997 78.8166 36.6394 78.8166 36.7973C78.8166 36.9431 78.8045 37.0949 78.7802 37.2528H71.3641V35.7405H76.3386C76.3143 35.1453 76.1078 34.6715 75.719 34.3192C75.3425 33.9669 74.8687 33.7908 74.2978 33.7908C73.8848 33.7908 73.5021 33.888 73.1498 34.0823C72.8097 34.2767 72.5364 34.5743 72.3299 34.9752C72.1234 35.3639 72.0201 35.8559 72.0201 36.4511V36.9795C72.0201 37.4897 72.1112 37.9331 72.2934 38.3097C72.4878 38.6863 72.755 38.9778 73.0952 39.1843C73.4353 39.3908 73.824 39.4941 74.2613 39.4941C74.7351 39.4941 75.1117 39.403 75.391 39.2207C75.6826 39.0264 75.9073 38.7774 76.0652 38.4737H78.5616C78.3915 39.0446 78.106 39.5609 77.7051 40.0225C77.3043 40.4719 76.8123 40.8303 76.2292 41.0975C75.6583 41.3648 75.0084 41.4984 74.2795 41.4984Z" fill="white"/>
<path d="M59 41.2783V28.5234H63.774C64.7944 28.5234 65.6386 28.6996 66.3067 29.0519C66.9748 29.4041 67.4729 29.8779 67.8009 30.4731C68.1289 31.0562 68.2929 31.7061 68.2929 32.4228C68.2929 33.1031 68.1349 33.7408 67.8191 34.336C67.5033 34.9191 67.0052 35.3929 66.325 35.7573C65.6568 36.1096 64.7944 36.2857 63.7375 36.2857H61.4599V41.2783H59ZM65.6143 41.2783L62.9905 35.6662H65.6508L68.4204 41.2783H65.6143ZM61.4599 34.5H63.61C64.351 34.5 64.8976 34.3178 65.2499 33.9534C65.6022 33.589 65.7783 33.1091 65.7783 32.5139C65.7783 31.9187 65.6022 31.451 65.2499 31.1109C64.9098 30.7586 64.3631 30.5824 63.61 30.5824H61.4599V34.5Z" fill="white"/>
<path d="M112.835 24.2631L115.04 19.2341H114.494L110.831 10.998H113.491L116.115 16.9746L118.466 10.998H121.09L115.441 24.2631H112.835Z" fill="white"/>
<path d="M105.528 20.475C104.617 20.475 103.809 20.2745 103.104 19.8737C102.4 19.4728 101.847 18.914 101.446 18.1973C101.045 17.4806 100.845 16.6546 100.845 15.7192C100.845 14.7474 101.039 13.891 101.428 13.15C101.829 12.409 102.381 11.832 103.086 11.419C103.791 10.9938 104.61 10.7812 105.546 10.7812C106.457 10.7812 107.253 10.9817 107.933 11.3826C108.613 11.7834 109.135 12.3301 109.5 13.0225C109.876 13.7027 110.065 14.4802 110.065 15.3548C110.065 15.4763 110.065 15.616 110.065 15.7739C110.065 15.9197 110.053 16.0715 110.028 16.2294H102.612V14.717H107.587C107.562 14.1218 107.356 13.6481 106.967 13.2958C106.591 12.9435 106.117 12.7674 105.546 12.7674C105.133 12.7674 104.75 12.8645 104.398 13.0589C104.058 13.2533 103.784 13.5509 103.578 13.9518C103.371 14.3405 103.268 14.8324 103.268 15.4277V15.9561C103.268 16.4663 103.359 16.9097 103.541 17.2862C103.736 17.6628 104.003 17.9544 104.343 18.1609C104.683 18.3674 105.072 18.4706 105.509 18.4706C105.983 18.4706 106.36 18.3795 106.639 18.1973C106.931 18.003 107.155 17.7539 107.313 17.4502H109.81C109.64 18.0212 109.354 18.5374 108.953 18.999C108.552 19.4485 108.06 19.8069 107.477 20.0741C106.906 20.3413 106.256 20.475 105.528 20.475Z" fill="white"/>
<path d="M95.1723 20.475C94.3098 20.475 93.5688 20.3413 92.9493 20.0741C92.3419 19.8069 91.8682 19.4364 91.5281 18.9626C91.1879 18.4889 90.9875 17.9483 90.9268 17.3409H93.3866C93.4352 17.5717 93.5263 17.7843 93.66 17.9787C93.8057 18.1609 94.0001 18.3127 94.243 18.4342C94.4981 18.5435 94.7957 18.5982 95.1359 18.5982C95.4639 18.5982 95.7311 18.5557 95.9376 18.4706C96.1563 18.3734 96.3142 18.2459 96.4114 18.088C96.5207 17.9301 96.5754 17.76 96.5754 17.5778C96.5754 17.3105 96.5025 17.1101 96.3567 16.9765C96.2109 16.8307 95.9983 16.7153 95.719 16.6303C95.4396 16.5331 95.0994 16.4481 94.6986 16.3752C94.237 16.2901 93.7936 16.1869 93.3684 16.0654C92.9432 15.9318 92.5667 15.7678 92.2387 15.5734C91.9107 15.3669 91.6495 15.1118 91.4552 14.8082C91.273 14.4923 91.1819 14.1036 91.1819 13.642C91.1819 13.1075 91.3276 12.6216 91.6192 12.1843C91.9229 11.747 92.3541 11.4068 92.9129 11.1639C93.4838 10.9088 94.158 10.7812 94.9354 10.7812C96.053 10.7812 96.9337 11.0303 97.5775 11.5283C98.2335 12.0264 98.6161 12.7066 98.7255 13.5691H96.4114C96.3506 13.2897 96.1927 13.0711 95.9376 12.9131C95.6825 12.7552 95.3424 12.6763 94.9172 12.6763C94.4799 12.6763 94.1459 12.7552 93.915 12.9131C93.6842 13.0711 93.5688 13.2776 93.5688 13.5327C93.5688 13.7027 93.6357 13.8606 93.7693 14.0064C93.915 14.14 94.1276 14.2554 94.407 14.3526C94.6864 14.4498 95.0387 14.5409 95.4639 14.6259C96.2049 14.7717 96.8365 14.9357 97.3589 15.1179C97.8934 15.3001 98.3064 15.5734 98.5979 15.9379C98.9016 16.2901 99.0534 16.7882 99.0534 17.432C99.0534 18.0394 98.8955 18.5739 98.5797 19.0355C98.2639 19.4849 97.8144 19.8372 97.2313 20.0923C96.6482 20.3474 95.9619 20.475 95.1723 20.475Z" fill="white"/>
<path d="M85.4565 20.475C84.594 20.475 83.853 20.3413 83.2335 20.0741C82.6261 19.8069 82.1524 19.4364 81.8122 18.9626C81.4721 18.4889 81.2717 17.9483 81.2109 17.3409H83.6708C83.7194 17.5717 83.8105 17.7843 83.9441 17.9787C84.0899 18.1609 84.2843 18.3127 84.5272 18.4342C84.7823 18.5435 85.0799 18.5982 85.4201 18.5982C85.748 18.5982 86.0153 18.5557 86.2218 18.4706C86.4404 18.3734 86.5984 18.2459 86.6955 18.088C86.8049 17.9301 86.8595 17.76 86.8595 17.5778C86.8595 17.3105 86.7866 17.1101 86.6409 16.9765C86.4951 16.8307 86.2825 16.7153 86.0031 16.6303C85.7237 16.5331 85.3836 16.4481 84.9827 16.3752C84.5211 16.2901 84.0778 16.1869 83.6526 16.0654C83.2274 15.9318 82.8509 15.7678 82.5229 15.5734C82.1949 15.3669 81.9337 15.1118 81.7394 14.8082C81.5571 14.4923 81.466 14.1036 81.466 13.642C81.466 13.1075 81.6118 12.6216 81.9033 12.1843C82.207 11.747 82.6383 11.4068 83.1971 11.1639C83.768 10.9088 84.4422 10.7812 85.2196 10.7812C86.3372 10.7812 87.2179 11.0303 87.8617 11.5283C88.5177 12.0264 88.9003 12.7066 89.0096 13.5691H86.6955C86.6348 13.2897 86.4769 13.0711 86.2218 12.9131C85.9667 12.7552 85.6266 12.6763 85.2014 12.6763C84.7641 12.6763 84.43 12.7552 84.1992 12.9131C83.9684 13.0711 83.853 13.2776 83.853 13.5327C83.853 13.7027 83.9198 13.8606 84.0535 14.0064C84.1992 14.14 84.4118 14.2554 84.6912 14.3526C84.9706 14.4498 85.3229 14.5409 85.748 14.6259C86.489 14.7717 87.1207 14.9357 87.643 15.1179C88.1775 15.3001 88.5906 15.5734 88.8821 15.9379C89.1858 16.2901 89.3376 16.7882 89.3376 17.432C89.3376 18.0394 89.1797 18.5739 88.8639 19.0355C88.548 19.4849 88.0986 19.8372 87.5155 20.0923C86.9324 20.3474 86.2461 20.475 85.4565 20.475Z" fill="white"/>
<path d="M73.9031 20.4731C73.1621 20.4731 72.5243 20.3213 71.9899 20.0176C71.4675 19.7139 71.0666 19.2644 70.7873 18.6692C70.5079 18.074 70.3682 17.3451 70.3682 16.4827V10.998H72.828V16.2093C72.828 16.9382 72.986 17.4848 73.3018 17.8492C73.6176 18.2137 74.0914 18.3959 74.723 18.3959C75.1239 18.3959 75.4823 18.3048 75.7981 18.1226C76.1139 17.9404 76.363 17.6792 76.5452 17.3391C76.7395 16.9868 76.8367 16.5555 76.8367 16.0453V10.998H79.2966V20.2545H77.1283L76.9278 18.7785C76.6606 19.2887 76.2719 19.7017 75.7617 20.0176C75.2515 20.3213 74.6319 20.4731 73.9031 20.4731Z" fill="white"/>
<path d="M59 20.2549V7.5H63.774C64.7944 7.5 65.6386 7.67614 66.3067 8.02842C66.9748 8.3807 67.4729 8.85445 67.8009 9.44968C68.1289 10.0328 68.2929 10.6827 68.2929 11.3994C68.2929 12.0796 68.1349 12.7174 67.8191 13.3126C67.5033 13.8957 67.0052 14.3694 66.325 14.7338C65.6568 15.0861 64.7944 15.2623 63.7375 15.2623H61.4599V20.2549H59ZM65.6143 20.2549L62.9905 14.6427H65.6508L68.4204 20.2549H65.6143ZM61.4599 13.4766H63.61C64.351 13.4766 64.8976 13.2944 65.2499 12.9299C65.6022 12.5655 65.7783 12.0857 65.7783 11.4905C65.7783 10.8952 65.6022 10.4276 65.2499 10.0874C64.9098 9.73514 64.3631 9.55901 63.61 9.55901H61.4599V13.4766Z" fill="white"/>
<defs>
<clipPath id="clip0_1254_61120">
<rect width="49" height="49" fill="white"/>
</clipPath>
</defs>
</svg>
